<?xml version="1.0" standalone="no"?>
<svg xmlns:xlink="http://www.w3.org/1999/xlink" xmlns="http://www.w3.org/2000/svg" style="left: 0px; top: 0px; width: 100%; height: 100%; display: block; min-width: 439px; height: 833px;"><g><g/><g><g transform="translate(0.5,0.5)" style="visibility: visible;"><ellipse cx="257" cy="20" rx="20" ry="20" fill="#fdf7e9" stroke="#d6b656" pointer-events="all"/></g><g style=""><g fill="black" font-family="Arial,Helvetica" text-anchor="middle" font-size="11px"><text x="257" y="23.5">Start</text></g></g><g transform="translate(0.5,0.5)" style="visibility: visible;"><ellipse cx="257" cy="812" rx="20" ry="20" fill="#fdf7e9" stroke="#d6b656" pointer-events="all"/></g><g style=""><g fill="black" font-family="Arial,Helvetica" text-anchor="middle" font-size="11px"><text x="257" y="815.5">End</text></g></g><g transform="translate(0.5,0.5)" style="visibility: visible; cursor: move;"><rect x="222.5" y="70" width="69" height="40" rx="4" ry="4" fill="#eaf7fd" stroke="#7dbff9" pointer-events="all"/></g><g style="cursor: move;"><g fill="#774400" font-family="Arial,Helvetica" text-anchor="middle" font-size="11px"><text x="257" y="93.5">detectFace</text></g></g><g transform="translate(0.5,0.5)" style="visibility: visible; cursor: move;"><rect x="76" y="156" width="362" height="536" rx="43.44" ry="43.44" fill="#ffffff" stroke="#9d9d9d" stroke-dasharray="3 3" pointer-events="all"/></g><g style="cursor: move;"><g fill="black" font-family="Arial,Helvetica" text-anchor="middle" font-size="11px"><text x="257" y="150">detectMaskByPersonCount</text></g></g><g style="cursor: pointer; visibility: visible;"><image x="81" y="161" width="9" height="9" xmlns:xlink="http://www.w3.org/1999/xlink" xlink:href="https://g.alicdn.com/serverless/fnf-console-frontend/0.0.1/static/mxgraph/images/expanded.gif" preserveAspectRatio="none"/></g><g transform="translate(0.5,0.5)" style="visibility: visible;"><path d="M 244.25 181 L 251.76 174.32 Q 255.5 171 259.24 174.32 L 274.26 187.68 Q 278 191 274.26 194.32 L 259.24 207.68 Q 255.5 211 251.76 207.68 L 236.74 194.32 Q 233 191 236.74 187.68 Z" fill="#ffffff" stroke="#9d9d9d" stroke-miterlimit="10" stroke-dasharray="3 3" pointer-events="all"/></g><g style=""><g fill="#774400" font-family="Arial,Helvetica" text-anchor="middle" font-size="11px"><text x="255.5" y="194.5">choice</text></g></g><g transform="translate(0.5,0.5)" style="visibility: visible;"><rect x="91" y="241" width="94" height="40" rx="4" ry="4" fill="#eaf7fd" stroke="#7dbff9" pointer-events="all"/></g><g style=""><g fill="#774400" font-family="Arial,Helvetica" text-anchor="middle" font-size="11px"><text x="138" y="264.5">InitEmptyResult</text></g></g><g transform="translate(0.5,0.5)" style="visibility: visible; cursor: move;"><rect x="215" y="241" width="81" height="40" rx="4" ry="4" fill="#eaf7fd" stroke="#7dbff9" pointer-events="all"/></g><g style="cursor: move;"><g fill="#774400" font-family="Arial,Helvetica" text-anchor="middle" font-size="11px"><text x="255.5" y="264.5">DetectMaskA</text></g></g><g transform="translate(0.5,0.5)" style="visibility: visible;"><rect x="326" y="241" width="97" height="40" rx="4" ry="4" fill="#eaf7fd" stroke="#7dbff9" pointer-events="all"/></g><g style=""><g fill="#774400" font-family="Arial,Helvetica" text-anchor="middle" font-size="11px"><text x="374.5" y="264.5">GetCropImageA</text></g></g><g transform="translate(0.5,0.5)" style="visibility: visible;"><rect x="275.17" y="311" width="69" height="40" rx="4" ry="4" fill="#eaf7fd" stroke="#7dbff9" pointer-events="all"/></g><g style=""><g fill="#774400" font-family="Arial,Helvetica" text-anchor="middle" font-size="11px"><text x="309.67" y="334.5">ImageCrop</text></g></g><g transform="translate(0.5,0.5)" style="visibility: visible;"><rect x="201.5" y="381" width="81" height="40" rx="4" ry="4" fill="#eaf7fd" stroke="#7dbff9" pointer-events="all"/></g><g style=""><g fill="#774400" font-family="Arial,Helvetica" text-anchor="middle" font-size="11px"><text x="242" y="404.5">DetectMaskB</text></g></g><g transform="translate(0.5,0.5)" style="visibility: visible;"><rect x="193.5" y="451" width="97" height="40" rx="4" ry="4" fill="#eaf7fd" stroke="#7dbff9" pointer-events="all"/></g><g style=""><g fill="#774400" font-family="Arial,Helvetica" text-anchor="middle" font-size="11px"><text x="242" y="474.5">GetCropImageB</text></g></g><g transform="translate(0.5,0.5)" style="visibility: visible;"><rect x="242.85" y="537" width="75" height="70" rx="8.4" ry="8.4" fill="#ffffff" stroke="#9d9d9d" stroke-dasharray="3 3" pointer-events="all"/></g><g style=""><g fill="black" font-family="Arial,Helvetica" text-anchor="middle" font-size="11px"><text x="280.35" y="531">ImageCropLoopCheck</text></g></g><g style="cursor: pointer; visibility: visible;"><image x="247" y="542" width="9" height="9" xmlns:xlink="http://www.w3.org/1999/xlink" xlink:href="https://g.alicdn.com/serverless/fnf-console-frontend/0.0.1/static/mxgraph/images/expanded.gif" preserveAspectRatio="none"/></g><g transform="translate(0.5,0.5)" style="visibility: visible;"><path d="M 269.1 562 L 276.61 555.32 Q 280.35 552 284.09 555.32 L 299.11 568.68 Q 302.85 572 299.11 575.32 L 284.09 588.68 Q 280.35 592 276.61 588.68 L 261.59 575.32 Q 257.85 572 261.59 568.68 Z" fill="#ffffff" stroke="#9d9d9d" stroke-miterlimit="10" stroke-dasharray="3 3" pointer-events="all"/></g><g style=""><g fill="#774400" font-family="Arial,Helvetica" text-anchor="middle" font-size="11px"><text x="280.35" y="575.5">choice</text></g></g><g transform="translate(0.5,0.5)" style="visibility: visible;"><rect x="246.85" y="637" width="67" height="40" rx="4" ry="4" fill="#eaf7fd" stroke="#7dbff9" pointer-events="all"/></g><g style=""><g fill="#774400" font-family="Arial,Helvetica" text-anchor="middle" font-size="11px"><text x="280.35" y="660.5">emptyStep</text></g></g><g transform="translate(0.5,0.5)" style="visibility: visible;"><path d="M 243.83 211 Q 243.83 223 190.92 226 Q 138 229 138 234.63" fill="none" stroke="white" stroke-miterlimit="10" pointer-events="stroke" visibility="hidden" stroke-width="9"/><path d="M 243.83 211 Q 243.83 223 190.92 226 Q 138 229 138 234.63" fill="none" stroke="#6482b9" stroke-miterlimit="10"/><path d="M 138 239.88 L 134.5 232.88 L 138 234.63 L 141.5 232.88 Z" fill="#6482b9" stroke="#6482b9" stroke-miterlimit="10" pointer-events="all"/></g><g transform="translate(0.5,0.5)" style="visibility: visible;"><path d="M 255.5 211 Q 255.5 225 255.5 227 Q 255.5 229 255.5 234.63" fill="none" stroke="white" stroke-miterlimit="10" pointer-events="stroke" visibility="hidden" stroke-width="9"/><path d="M 255.5 211 Q 255.5 225 255.5 227 Q 255.5 229 255.5 234.63" fill="none" stroke="#6482b9" stroke-miterlimit="10"/><path d="M 255.5 239.88 L 252 232.88 L 255.5 234.63 L 259 232.88 Z" fill="#6482b9" stroke="#6482b9" stroke-miterlimit="10" pointer-events="all"/></g><g transform="translate(0.5,0.5)" style="visibility: visible;"><path d="M 374.5 281 Q 374.5 293 342.08 296 Q 309.67 299 309.67 304.63" fill="none" stroke="white" stroke-miterlimit="10" pointer-events="stroke" visibility="hidden" stroke-width="9"/><path d="M 374.5 281 Q 374.5 293 342.08 296 Q 309.67 299 309.67 304.63" fill="none" stroke="#6482b9" stroke-miterlimit="10"/><path d="M 309.67 309.88 L 306.17 302.88 L 309.67 304.63 L 313.17 302.88 Z" fill="#6482b9" stroke="#6482b9" stroke-miterlimit="10" pointer-events="all"/></g><g transform="translate(0.5,0.5)" style="visibility: visible;"><path d="M 294.92 351 Q 294.92 363 268.46 366 Q 242 369 242 374.63" fill="none" stroke="white" stroke-miterlimit="10" pointer-events="stroke" visibility="hidden" stroke-width="9"/><path d="M 294.92 351 Q 294.92 363 268.46 366 Q 242 369 242 374.63" fill="none" stroke="#6482b9" stroke-miterlimit="10"/><path d="M 242 379.88 L 238.5 372.88 L 242 374.63 L 245.5 372.88 Z" fill="#6482b9" stroke="#6482b9" stroke-miterlimit="10" pointer-events="all"/></g><g transform="translate(0.5,0.5)" style="visibility: visible;"><path d="M 242 421 Q 242 433 242 436 Q 242 439 242 444.63" fill="none" stroke="white" stroke-miterlimit="10" pointer-events="stroke" visibility="hidden" stroke-width="9"/><path d="M 242 421 Q 242 433 242 436 Q 242 439 242 444.63" fill="none" stroke="#6482b9" stroke-miterlimit="10"/><path d="M 242 449.88 L 238.5 442.88 L 242 444.63 L 245.5 442.88 Z" fill="#6482b9" stroke="#6482b9" stroke-miterlimit="10" pointer-events="all"/></g><g transform="translate(0.5,0.5)" style="visibility: visible;"><path d="M 242 491 Q 242 503 248.66 506 Q 255.33 509 255.33 530.63" fill="none" stroke="white" stroke-miterlimit="10" pointer-events="stroke" visibility="hidden" stroke-width="9"/><path d="M 242 491 Q 242 503 248.66 506 Q 255.33 509 255.33 530.63" fill="none" stroke="#6482b9" stroke-miterlimit="10"/><path d="M 255.33 535.88 L 251.83 528.88 L 255.33 530.63 L 258.83 528.88 Z" fill="#6482b9" stroke="#6482b9" stroke-miterlimit="10" pointer-events="all"/></g><g transform="translate(0.5,0.5)" style="visibility: visible;"><path d="M 305.38 537 Q 305.38 509 312.94 507.5 Q 320.5 506 320.5 471 Q 320.5 436 320.5 436 Q 320.5 436 320.5 401 Q 320.5 366 322.46 364.5 Q 324.42 363 324.42 357.37" fill="none" stroke="white" stroke-miterlimit="10" pointer-events="stroke" visibility="hidden" stroke-width="9"/><path d="M 305.38 537 Q 305.38 509 312.94 507.5 Q 320.5 506 320.5 471 Q 320.5 436 320.5 436 Q 320.5 436 320.5 401 Q 320.5 366 322.46 364.5 Q 324.42 363 324.42 357.37" fill="none" stroke="#6482b9" stroke-miterlimit="10"/><path d="M 324.42 352.12 L 327.92 359.12 L 324.42 357.37 L 320.92 359.12 Z" fill="#6482b9" stroke="#6482b9" stroke-miterlimit="10" pointer-events="all"/></g><g transform="translate(0.5,0.5)" style="visibility: visible;"><path d="M 255.33 607 Q 255.33 619 260.72 622 Q 266.1 625 266.1 630.63" fill="none" stroke="white" stroke-miterlimit="10" pointer-events="stroke" visibility="hidden" stroke-width="9"/><path d="M 255.33 607 Q 255.33 619 260.72 622 Q 266.1 625 266.1 630.63" fill="none" stroke="#6482b9" stroke-miterlimit="10"/><path d="M 266.1 635.88 L 262.6 628.88 L 266.1 630.63 L 269.6 628.88 Z" fill="#6482b9" stroke="#6482b9" stroke-miterlimit="10" pointer-events="all"/></g><g transform="translate(0.5,0.5)" style="visibility: visible;"><path d="M 305.38 607 Q 305.38 619 299.99 622 Q 294.6 625 294.6 630.63" fill="none" stroke="white" stroke-miterlimit="10" pointer-events="stroke" visibility="hidden" stroke-width="9"/><path d="M 305.38 607 Q 305.38 619 299.99 622 Q 294.6 625 294.6 630.63" fill="none" stroke="#6482b9" stroke-miterlimit="10"/><path d="M 294.6 635.88 L 291.1 628.88 L 294.6 630.63 L 298.1 628.88 Z" fill="#6482b9" stroke="#6482b9" stroke-miterlimit="10" pointer-events="all"/></g><g transform="translate(0.5,0.5)" style="visibility: visible;"><path d="M 267.17 211 Q 267.17 223 320.83 226 Q 374.5 229 374.5 234.63" fill="none" stroke="white" stroke-miterlimit="10" pointer-events="stroke" visibility="hidden" stroke-width="9"/><path d="M 267.17 211 Q 267.17 223 320.83 226 Q 374.5 229 374.5 234.63" fill="none" stroke="#6482b9" stroke-miterlimit="10"/><path d="M 374.5 239.88 L 371 232.88 L 374.5 234.63 L 378 232.88 Z" fill="#6482b9" stroke="#6482b9" stroke-miterlimit="10" pointer-events="all"/></g><g transform="translate(0.5,0.5)" style="visibility: visible;"><rect x="216" y="722" width="82" height="40" rx="4" ry="4" fill="#eaf7fd" stroke="#7dbff9" pointer-events="all"/></g><g style=""><g fill="#774400" font-family="Arial,Helvetica" text-anchor="middle" font-size="11px"><text x="257" y="745.5">MergeRresult</text></g></g><g transform="translate(0.5,0.5)" style="visibility: visible;"><path d="M 257 110 Q 257 122 257 125 Q 257 128 257 149.63" fill="none" stroke="white" stroke-miterlimit="10" pointer-events="stroke" visibility="hidden" stroke-width="9"/><path d="M 257 110 Q 257 122 257 125 Q 257 128 257 149.63" fill="none" stroke="#6482b9" stroke-miterlimit="10"/><path d="M 257 154.88 L 253.5 147.88 L 257 149.63 L 260.5 147.88 Z" fill="#6482b9" stroke="#6482b9" stroke-miterlimit="10" pointer-events="all"/></g><g transform="translate(0.5,0.5)" style="visibility: visible;"><path d="M 169 692 Q 169 704 204 707 Q 239 710 239 715.63" fill="none" stroke="white" stroke-miterlimit="10" pointer-events="stroke" visibility="hidden" stroke-width="9"/><path d="M 169 692 Q 169 704 204 707 Q 239 710 239 715.63" fill="none" stroke="#6482b9" stroke-miterlimit="10"/><path d="M 239 720.88 L 235.5 713.88 L 239 715.63 L 242.5 713.88 Z" fill="#6482b9" stroke="#6482b9" stroke-miterlimit="10" pointer-events="all"/></g><g transform="translate(0.5,0.5)" style="visibility: visible;"><path d="M 345 692 Q 345 704 310 707 Q 275 710 275 715.63" fill="none" stroke="white" stroke-miterlimit="10" pointer-events="stroke" visibility="hidden" stroke-width="9"/><path d="M 345 692 Q 345 704 310 707 Q 275 710 275 715.63" fill="none" stroke="#6482b9" stroke-miterlimit="10"/><path d="M 275 720.88 L 271.5 713.88 L 275 715.63 L 278.5 713.88 Z" fill="#6482b9" stroke="#6482b9" stroke-miterlimit="10" pointer-events="all"/></g><g transform="translate(0.5,0.5)" style="visibility: visible;"><path d="M 257 762 Q 257 774 257 777 Q 257 780 257 785.63" fill="none" stroke="white" stroke-miterlimit="10" pointer-events="stroke" visibility="hidden" stroke-width="9"/><path d="M 257 762 Q 257 774 257 777 Q 257 780 257 785.63" fill="none" stroke="#6482b9" stroke-miterlimit="10"/><path d="M 257 790.88 L 253.5 783.88 L 257 785.63 L 260.5 783.88 Z" fill="#6482b9" stroke="#6482b9" stroke-miterlimit="10" pointer-events="all"/></g><g transform="translate(0.5,0.5)" style="visibility: visible;"><path d="M 257 40 Q 257 52 257 55 Q 257 58 257 63.63" fill="none" stroke="white" stroke-miterlimit="10" pointer-events="stroke" visibility="hidden" stroke-width="9"/><path d="M 257 40 Q 257 52 257 55 Q 257 58 257 63.63" fill="none" stroke="#6482b9" stroke-miterlimit="10"/><path d="M 257 68.88 L 253.5 61.88 L 257 63.63 L 260.5 61.88 Z" fill="#6482b9" stroke="#6482b9" stroke-miterlimit="10" pointer-events="all"/></g></g><g/><g/></g></svg>